<svg width="1920" height="1080" viewBox="0 0 1920 1080" fill="none" xmlns="http://www.w3.org/2000/svg">
<g clip-path="url(#clip0_18_37)">
<rect width="1920" height="1080" fill="#EEEEFE"/>
<g filter="url(#filter0_d_18_37)">
<rect width="60.0819" height="270.896" rx="12.7215" transform="matrix(0.834297 0.551314 -0.654994 0.755634 1802.44 -154.788)" fill="url(#paint0_linear_18_37)"/>
</g>
<g filter="url(#filter1_d_18_37)">
<rect width="60.0819" height="270.896" rx="12.7215" transform="matrix(0.834297 0.551314 -0.654994 0.755634 1920.87 -164)" fill="url(#paint1_linear_18_37)"/>
</g>
<path d="M192.141 58.6667C190.453 59.6199 188.578 60.0964 186.516 60.0964C184.117 60.0964 182.176 59.323 180.691 57.7761C179.215 56.2292 178.477 54.1824 178.477 51.6355C178.477 49.0339 179.297 46.9011 180.938 45.2371C182.586 43.5652 184.672 42.7292 187.195 42.7292C189.023 42.7292 190.559 43.0261 191.801 43.6199V45.7996C190.441 44.9402 188.832 44.5105 186.973 44.5105C185.09 44.5105 183.547 45.1589 182.344 46.4558C181.141 47.7527 180.539 49.4324 180.539 51.4949C180.539 53.6199 181.098 55.2917 182.215 56.5105C183.332 57.7214 184.848 58.3269 186.762 58.3269C188.074 58.3269 189.211 58.0652 190.172 57.5417V52.8308H186.492V51.0496H192.141V58.6667ZM208.102 59.8152H205.758L202.945 55.1042C202.688 54.6667 202.438 54.2957 202.195 53.991C201.953 53.6785 201.703 53.4246 201.445 53.2292C201.195 53.0339 200.922 52.8933 200.625 52.8074C200.336 52.7136 200.008 52.6667 199.641 52.6667H198.023V59.8152H196.055V43.0105H201.07C201.805 43.0105 202.48 43.1042 203.098 43.2917C203.723 43.4714 204.262 43.7488 204.715 44.1238C205.176 44.4988 205.535 44.9675 205.793 45.53C206.051 46.0847 206.18 46.7371 206.18 47.4871C206.18 48.073 206.09 48.6121 205.91 49.1042C205.738 49.5886 205.488 50.0222 205.16 50.405C204.84 50.7878 204.449 51.116 203.988 51.3894C203.535 51.655 203.023 51.8621 202.453 52.0105V52.0574C202.734 52.1824 202.977 52.3269 203.18 52.491C203.391 52.6472 203.59 52.8347 203.777 53.0535C203.965 53.2722 204.148 53.5222 204.328 53.8035C204.516 54.0769 204.723 54.3972 204.949 54.7644L208.102 59.8152ZM198.023 44.7917V50.8855H200.695C201.188 50.8855 201.641 50.8113 202.055 50.6628C202.477 50.5144 202.84 50.3035 203.145 50.03C203.449 49.7488 203.688 49.4089 203.859 49.0105C204.031 48.6042 204.117 48.1511 204.117 47.6511C204.117 46.7527 203.824 46.0535 203.238 45.5535C202.66 45.0457 201.82 44.7917 200.719 44.7917H198.023ZM222.715 53.0183C222.715 57.7371 220.586 60.0964 216.328 60.0964C212.25 60.0964 210.211 57.8269 210.211 53.2878V43.0105H212.18V53.1589C212.18 56.6042 213.633 58.3269 216.539 58.3269C219.344 58.3269 220.746 56.6628 220.746 53.3347V43.0105H222.715V53.0183ZM228.891 53.4636V59.8152H226.922V43.0105H231.539C233.336 43.0105 234.727 43.448 235.711 44.323C236.703 45.198 237.199 46.4324 237.199 48.0261C237.199 49.6199 236.648 50.9246 235.547 51.9402C234.453 52.9558 232.973 53.4636 231.105 53.4636H228.891ZM228.891 44.7917V51.6824H230.953C232.312 51.6824 233.348 51.3738 234.059 50.7566C234.777 50.1316 235.137 49.2527 235.137 48.1199C235.137 45.9011 233.824 44.7917 231.199 44.7917H228.891ZM247.148 60.0964C244.766 60.0964 242.855 59.3113 241.418 57.741C239.988 56.1707 239.273 54.1277 239.273 51.6121C239.273 48.9089 240.004 46.7527 241.465 45.1433C242.926 43.5339 244.914 42.7292 247.43 42.7292C249.75 42.7292 251.617 43.5105 253.031 45.073C254.453 46.6355 255.164 48.6785 255.164 51.2019C255.164 53.9441 254.438 56.1121 252.984 57.7058C251.531 59.2996 249.586 60.0964 247.148 60.0964ZM247.289 44.5105C245.523 44.5105 244.09 45.1472 242.988 46.4207C241.887 47.6941 241.336 49.366 241.336 51.4363C241.336 53.5066 241.871 55.1746 242.941 56.4402C244.02 57.698 245.422 58.3269 247.148 58.3269C248.992 58.3269 250.445 57.7253 251.508 56.5222C252.57 55.3191 253.102 53.6355 253.102 51.4714C253.102 49.2527 252.586 47.5378 251.555 46.3269C250.523 45.116 249.102 44.5105 247.289 44.5105ZM265.055 59.8152V43.0105H269.695C275.617 43.0105 278.578 45.741 278.578 51.2019C278.578 53.7957 277.754 55.8816 276.105 57.4597C274.465 59.03 272.266 59.8152 269.508 59.8152H265.055ZM267.023 44.7917V58.0339H269.531C271.734 58.0339 273.449 57.4441 274.676 56.2644C275.902 55.0847 276.516 53.4128 276.516 51.2488C276.516 46.9441 274.227 44.7917 269.648 44.7917H267.023ZM290.789 59.8152H281.883V43.0105H290.414V44.7917H283.852V50.3816H289.922V52.1511H283.852V58.0339H290.789V59.8152ZM312.047 59.1121C310.805 59.7683 309.258 60.0964 307.406 60.0964C305.016 60.0964 303.102 59.3269 301.664 57.7878C300.227 56.2488 299.508 54.2292 299.508 51.7292C299.508 49.0417 300.316 46.8699 301.934 45.2136C303.551 43.5574 305.602 42.7292 308.086 42.7292C309.68 42.7292 311 42.9597 312.047 43.4207V45.5183C310.844 44.8464 309.516 44.5105 308.062 44.5105C306.133 44.5105 304.566 45.155 303.363 46.4441C302.168 47.7332 301.57 49.4558 301.57 51.6121C301.57 53.6589 302.129 55.2917 303.246 56.5105C304.371 57.7214 305.844 58.3269 307.664 58.3269C309.352 58.3269 310.812 57.9519 312.047 57.2019V59.1121ZM321.586 60.0964C319.203 60.0964 317.293 59.3113 315.855 57.741C314.426 56.1707 313.711 54.1277 313.711 51.6121C313.711 48.9089 314.441 46.7527 315.902 45.1433C317.363 43.5339 319.352 42.7292 321.867 42.7292C324.188 42.7292 326.055 43.5105 327.469 45.073C328.891 46.6355 329.602 48.6785 329.602 51.2019C329.602 53.9441 328.875 56.1121 327.422 57.7058C325.969 59.2996 324.023 60.0964 321.586 60.0964ZM321.727 44.5105C319.961 44.5105 318.527 45.1472 317.426 46.4207C316.324 47.6941 315.773 49.366 315.773 51.4363C315.773 53.5066 316.309 55.1746 317.379 56.4402C318.457 57.698 319.859 58.3269 321.586 58.3269C323.43 58.3269 324.883 57.7253 325.945 56.5222C327.008 55.3191 327.539 53.6355 327.539 51.4714C327.539 49.2527 327.023 47.5378 325.992 46.3269C324.961 45.116 323.539 44.5105 321.727 44.5105ZM346.453 59.8152H344.039L335.391 46.4207C335.172 46.0847 334.992 45.7332 334.852 45.366H334.781C334.844 45.7253 334.875 46.4949 334.875 47.6746V59.8152H332.906V43.0105H335.461L343.875 56.1941C344.227 56.741 344.453 57.116 344.555 57.3191H344.602C344.523 56.8347 344.484 56.0105 344.484 54.8464V43.0105H346.453V59.8152ZM360.797 44.7917H355.945V59.8152H353.977V44.7917H349.137V43.0105H360.797V44.7917ZM374.812 59.8152H372.633L370.852 55.1042H363.727L362.051 59.8152H359.859L366.305 43.0105H368.344L374.812 59.8152ZM370.207 53.3347L367.57 46.1746C367.484 45.9402 367.398 45.5652 367.312 45.0496H367.266C367.188 45.5261 367.098 45.9011 366.996 46.1746L364.383 53.3347H370.207ZM376.512 59.1355V56.8152C376.777 57.0496 377.094 57.2605 377.461 57.448C377.836 57.6355 378.227 57.7957 378.633 57.9285C379.047 58.0535 379.461 58.1511 379.875 58.2214C380.289 58.2917 380.672 58.3269 381.023 58.3269C382.234 58.3269 383.137 58.1042 383.73 57.6589C384.332 57.2058 384.633 56.5574 384.633 55.7136C384.633 55.2605 384.531 54.866 384.328 54.53C384.133 54.1941 383.859 53.8894 383.508 53.616C383.156 53.3347 382.738 53.0691 382.254 52.8191C381.777 52.5613 381.262 52.2917 380.707 52.0105C380.121 51.7136 379.574 51.4128 379.066 51.1082C378.559 50.8035 378.117 50.4675 377.742 50.1003C377.367 49.7332 377.07 49.3191 376.852 48.8582C376.641 48.3894 376.535 47.8425 376.535 47.2175C376.535 46.4519 376.703 45.7878 377.039 45.2253C377.375 44.655 377.816 44.1863 378.363 43.8191C378.91 43.4519 379.531 43.1785 380.227 42.9988C380.93 42.8191 381.645 42.7292 382.371 42.7292C384.027 42.7292 385.234 42.9285 385.992 43.3269V45.5417C385 44.8542 383.727 44.5105 382.172 44.5105C381.742 44.5105 381.312 44.5574 380.883 44.6511C380.453 44.7371 380.07 44.8816 379.734 45.0847C379.398 45.2878 379.125 45.5496 378.914 45.8699C378.703 46.1902 378.598 46.5808 378.598 47.0417C378.598 47.4714 378.676 47.8425 378.832 48.155C378.996 48.4675 379.234 48.7527 379.547 49.0105C379.859 49.2683 380.238 49.5183 380.684 49.7605C381.137 50.0027 381.656 50.2683 382.242 50.5574C382.844 50.8542 383.414 51.1667 383.953 51.4949C384.492 51.823 384.965 52.1863 385.371 52.5847C385.777 52.9832 386.098 53.4246 386.332 53.9089C386.574 54.3933 386.695 54.948 386.695 55.573C386.695 56.4011 386.531 57.1042 386.203 57.6824C385.883 58.2527 385.445 58.7175 384.891 59.0769C384.344 59.4363 383.711 59.6941 382.992 59.8503C382.273 60.0144 381.516 60.0964 380.719 60.0964C380.453 60.0964 380.125 60.073 379.734 60.0261C379.344 59.9871 378.945 59.9246 378.539 59.8386C378.133 59.7605 377.746 59.6628 377.379 59.5457C377.02 59.4207 376.73 59.2839 376.512 59.1355ZM402.516 53.8855H396.117V52.3738H402.516V53.8855ZM412.547 59.8152V43.0105H418.5C424.469 43.0105 427.453 45.741 427.453 51.2019C427.453 53.8191 426.637 55.9089 425.004 57.4714C423.379 59.0339 421.211 59.8152 418.5 59.8152H412.547ZM416.332 46.0925V56.7449H418.207C419.848 56.7449 421.133 56.2527 422.062 55.2683C423 54.2839 423.469 52.9441 423.469 51.2488C423.469 49.6472 423.004 48.3894 422.074 47.4753C421.152 46.5535 419.855 46.0925 418.184 46.0925H416.332ZM444.34 59.8152H439.992L437.379 55.491C437.184 55.1628 436.996 54.8699 436.816 54.6121C436.637 54.3542 436.453 54.1355 436.266 53.9558C436.086 53.7683 435.895 53.6277 435.691 53.5339C435.496 53.4324 435.281 53.3816 435.047 53.3816H434.027V59.8152H430.242V43.0105H436.242C440.32 43.0105 442.359 44.5339 442.359 47.5808C442.359 48.1667 442.27 48.7097 442.09 49.2097C441.91 49.7019 441.656 50.1472 441.328 50.5457C441 50.9441 440.602 51.2878 440.133 51.5769C439.672 51.866 439.156 52.0925 438.586 52.2566V52.3035C438.836 52.3816 439.078 52.5105 439.312 52.6902C439.547 52.8621 439.773 53.0652 439.992 53.2996C440.211 53.5339 440.418 53.7878 440.613 54.0613C440.816 54.3269 441 54.5886 441.164 54.8464L444.34 59.8152ZM434.027 45.8464V50.5222H435.668C436.48 50.5222 437.133 50.2878 437.625 49.8191C438.125 49.3425 438.375 48.7527 438.375 48.0496C438.375 46.5808 437.496 45.8464 435.738 45.8464H434.027ZM456 59.8152H445.922V43.0105H455.613V46.0925H449.707V49.8308H455.203V52.9011H449.707V56.7449H456V59.8152Z" fill="black" fill-opacity="0.6"/>
<line x1="152.001" y1="85.75" x2="1180" y2="87.9303" stroke="#CBCBCB" stroke-width="0.5"/>
<g filter="url(#filter2_d_18_37)">
<path d="M16 128.456C16 117.711 24.711 109 35.4565 109H1884.54C1895.29 109 1904 117.711 1904 128.456V1028.54C1904 1039.29 1895.29 1048 1884.54 1048H35.4564C24.7109 1048 16 1039.29 16 1028.54V128.456Z" fill="white"/>
</g>
</g>
<defs>
<filter id="filter0_d_18_37" x="1622.97" y="-156.048" width="234.618" height="246.33" filterUnits="userSpaceOnUse" color-interpolation-filters="sRGB">
<feFlood flood-opacity="0" result="BackgroundImageFix"/>
<feColorMatrix in="SourceAlpha" type="matrix" values="0 0 0 0 0 0 0 0 0 0 0 0 0 0 0 0 0 0 127 0" result="hardAlpha"/>
<feOffset dx="1.49665" dy="2.9933"/>
<feGaussianBlur stdDeviation="4.48995"/>
<feComposite in2="hardAlpha" operator="out"/>
<feColorMatrix type="matrix" values="0 0 0 0 0.392157 0 0 0 0 0.203922 0 0 0 0 0.972549 0 0 0 0.15 0"/>
<feBlend mode="normal" in2="BackgroundImageFix" result="effect1_dropShadow_18_37"/>
<feBlend mode="normal" in="SourceGraphic" in2="effect1_dropShadow_18_37" result="shape"/>
</filter>
<filter id="filter1_d_18_37" x="1741.41" y="-165.26" width="234.618" height="246.33" filterUnits="userSpaceOnUse" color-interpolation-filters="sRGB">
<feFlood flood-opacity="0" result="BackgroundImageFix"/>
<feColorMatrix in="SourceAlpha" type="matrix" values="0 0 0 0 0 0 0 0 0 0 0 0 0 0 0 0 0 0 127 0" result="hardAlpha"/>
<feOffset dx="1.49665" dy="2.9933"/>
<feGaussianBlur stdDeviation="4.48995"/>
<feComposite in2="hardAlpha" operator="out"/>
<feColorMatrix type="matrix" values="0 0 0 0 0.392157 0 0 0 0 0.203922 0 0 0 0 0.972549 0 0 0 0.15 0"/>
<feBlend mode="normal" in2="BackgroundImageFix" result="effect1_dropShadow_18_37"/>
<feBlend mode="normal" in="SourceGraphic" in2="effect1_dropShadow_18_37" result="shape"/>
</filter>
<filter id="filter2_d_18_37" x="8.51675" y="103.013" width="1905.96" height="956.96" filterUnits="userSpaceOnUse" color-interpolation-filters="sRGB">
<feFlood flood-opacity="0" result="BackgroundImageFix"/>
<feColorMatrix in="SourceAlpha" type="matrix" values="0 0 0 0 0 0 0 0 0 0 0 0 0 0 0 0 0 0 127 0" result="hardAlpha"/>
<feOffset dx="1.49665" dy="2.9933"/>
<feGaussianBlur stdDeviation="4.48995"/>
<feComposite in2="hardAlpha" operator="out"/>
<feColorMatrix type="matrix" values="0 0 0 0 0.392157 0 0 0 0 0.203922 0 0 0 0 0.972549 0 0 0 0.15 0"/>
<feBlend mode="normal" in2="BackgroundImageFix" result="effect1_dropShadow_18_37"/>
<feBlend mode="normal" in="SourceGraphic" in2="effect1_dropShadow_18_37" result="shape"/>
</filter>
<linearGradient id="paint0_linear_18_37" x1="30.041" y1="0" x2="30.041" y2="270.896" gradientUnits="userSpaceOnUse">
<stop stop-color="#5A48F9"/>
<stop offset="1" stop-color="#312787"/>
</linearGradient>
<linearGradient id="paint1_linear_18_37" x1="30.041" y1="0" x2="30.041" y2="270.896" gradientUnits="userSpaceOnUse">
<stop stop-color="#5A48F9"/>
<stop offset="0.0001" stop-color="#312787"/>
</linearGradient>
<clipPath id="clip0_18_37">
<rect width="1920" height="1080" fill="white"/>
</clipPath>
</defs>
</svg>
