<svg width="1920" height="1080" viewBox="0 0 1920 1080" fill="none" xmlns="http://www.w3.org/2000/svg">
<g clip-path="url(#clip0_3_37)">
<rect width="1920" height="1080" fill="#EEEEFE"/>
<g filter="url(#filter0_d_3_37)">
<rect width="60.0819" height="270.896" rx="12.7215" transform="matrix(0.834297 0.551314 -0.654994 0.755634 1802.44 -154.788)" fill="url(#paint0_linear_3_37)"/>
</g>
<g filter="url(#filter1_d_3_37)">
<rect width="60.0819" height="270.896" rx="12.7215" transform="matrix(0.834297 0.551314 -0.654994 0.755634 1920.87 -164)" fill="url(#paint1_linear_3_37)"/>
</g>
<path d="M179.578 59.8152V43.0105H184.219C190.141 43.0105 193.102 45.741 193.102 51.2019C193.102 53.7957 192.277 55.8816 190.629 57.4597C188.988 59.03 186.789 59.8152 184.031 59.8152H179.578ZM181.547 44.7917V58.0339H184.055C186.258 58.0339 187.973 57.4441 189.199 56.2644C190.426 55.0847 191.039 53.4128 191.039 51.2488C191.039 46.9441 188.75 44.7917 184.172 44.7917H181.547ZM205.312 59.8152H196.406V43.0105H204.938V44.7917H198.375V50.3816H204.445V52.1511H198.375V58.0339H205.312V59.8152ZM225.68 59.8152H223.723V48.5417C223.723 47.6511 223.777 46.5613 223.887 45.2722H223.84C223.652 46.03 223.484 46.573 223.336 46.9011L217.594 59.8152H216.633L210.902 46.9949C210.738 46.6199 210.57 46.0457 210.398 45.2722H210.352C210.414 45.9441 210.445 47.0417 210.445 48.5652V59.8152H208.547V43.0105H211.148L216.305 54.7292C216.703 55.6277 216.961 56.2996 217.078 56.7449H217.148C217.484 55.823 217.754 55.1355 217.957 54.6824L223.219 43.0105H225.68V59.8152ZM236.883 60.0964C234.5 60.0964 232.59 59.3113 231.152 57.741C229.723 56.1707 229.008 54.1277 229.008 51.6121C229.008 48.9089 229.738 46.7527 231.199 45.1433C232.66 43.5339 234.648 42.7292 237.164 42.7292C239.484 42.7292 241.352 43.5105 242.766 45.073C244.188 46.6355 244.898 48.6785 244.898 51.2019C244.898 53.9441 244.172 56.1121 242.719 57.7058C241.266 59.2996 239.32 60.0964 236.883 60.0964ZM237.023 44.5105C235.258 44.5105 233.824 45.1472 232.723 46.4207C231.621 47.6941 231.07 49.366 231.07 51.4363C231.07 53.5066 231.605 55.1746 232.676 56.4402C233.754 57.698 235.156 58.3269 236.883 58.3269C238.727 58.3269 240.18 57.7253 241.242 56.5222C242.305 55.3191 242.836 53.6355 242.836 51.4714C242.836 49.2527 242.32 47.5378 241.289 46.3269C240.258 45.116 238.836 44.5105 237.023 44.5105ZM261.75 59.8152H259.336L250.688 46.4207C250.469 46.0847 250.289 45.7332 250.148 45.366H250.078C250.141 45.7253 250.172 46.4949 250.172 47.6746V59.8152H248.203V43.0105H250.758L259.172 56.1941C259.523 56.741 259.75 57.116 259.852 57.3191H259.898C259.82 56.8347 259.781 56.0105 259.781 54.8464V43.0105H261.75V59.8152ZM265.371 59.1355V56.8152C265.637 57.0496 265.953 57.2605 266.32 57.448C266.695 57.6355 267.086 57.7957 267.492 57.9285C267.906 58.0535 268.32 58.1511 268.734 58.2214C269.148 58.2917 269.531 58.3269 269.883 58.3269C271.094 58.3269 271.996 58.1042 272.59 57.6589C273.191 57.2058 273.492 56.5574 273.492 55.7136C273.492 55.2605 273.391 54.866 273.188 54.53C272.992 54.1941 272.719 53.8894 272.367 53.616C272.016 53.3347 271.598 53.0691 271.113 52.8191C270.637 52.5613 270.121 52.2917 269.566 52.0105C268.98 51.7136 268.434 51.4128 267.926 51.1082C267.418 50.8035 266.977 50.4675 266.602 50.1003C266.227 49.7332 265.93 49.3191 265.711 48.8582C265.5 48.3894 265.395 47.8425 265.395 47.2175C265.395 46.4519 265.562 45.7878 265.898 45.2253C266.234 44.655 266.676 44.1863 267.223 43.8191C267.77 43.4519 268.391 43.1785 269.086 42.9988C269.789 42.8191 270.504 42.7292 271.23 42.7292C272.887 42.7292 274.094 42.9285 274.852 43.3269V45.5417C273.859 44.8542 272.586 44.5105 271.031 44.5105C270.602 44.5105 270.172 44.5574 269.742 44.6511C269.312 44.7371 268.93 44.8816 268.594 45.0847C268.258 45.2878 267.984 45.5496 267.773 45.8699C267.562 46.1902 267.457 46.5808 267.457 47.0417C267.457 47.4714 267.535 47.8425 267.691 48.155C267.855 48.4675 268.094 48.7527 268.406 49.0105C268.719 49.2683 269.098 49.5183 269.543 49.7605C269.996 50.0027 270.516 50.2683 271.102 50.5574C271.703 50.8542 272.273 51.1667 272.812 51.4949C273.352 51.823 273.824 52.1863 274.23 52.5847C274.637 52.9832 274.957 53.4246 275.191 53.9089C275.434 54.3933 275.555 54.948 275.555 55.573C275.555 56.4011 275.391 57.1042 275.062 57.6824C274.742 58.2527 274.305 58.7175 273.75 59.0769C273.203 59.4363 272.57 59.6941 271.852 59.8503C271.133 60.0144 270.375 60.0964 269.578 60.0964C269.312 60.0964 268.984 60.073 268.594 60.0261C268.203 59.9871 267.805 59.9246 267.398 59.8386C266.992 59.7605 266.605 59.6628 266.238 59.5457C265.879 59.4207 265.59 59.2839 265.371 59.1355ZM288.844 44.7917H283.992V59.8152H282.023V44.7917H277.184V43.0105H288.844V44.7917ZM303.539 59.8152H301.195L298.383 55.1042C298.125 54.6667 297.875 54.2957 297.633 53.991C297.391 53.6785 297.141 53.4246 296.883 53.2292C296.633 53.0339 296.359 52.8933 296.062 52.8074C295.773 52.7136 295.445 52.6667 295.078 52.6667H293.461V59.8152H291.492V43.0105H296.508C297.242 43.0105 297.918 43.1042 298.535 43.2917C299.16 43.4714 299.699 43.7488 300.152 44.1238C300.613 44.4988 300.973 44.9675 301.23 45.53C301.488 46.0847 301.617 46.7371 301.617 47.4871C301.617 48.073 301.527 48.6121 301.348 49.1042C301.176 49.5886 300.926 50.0222 300.598 50.405C300.277 50.7878 299.887 51.116 299.426 51.3894C298.973 51.655 298.461 51.8621 297.891 52.0105V52.0574C298.172 52.1824 298.414 52.3269 298.617 52.491C298.828 52.6472 299.027 52.8347 299.215 53.0535C299.402 53.2722 299.586 53.5222 299.766 53.8035C299.953 54.0769 300.16 54.3972 300.387 54.7644L303.539 59.8152ZM293.461 44.7917V50.8855H296.133C296.625 50.8855 297.078 50.8113 297.492 50.6628C297.914 50.5144 298.277 50.3035 298.582 50.03C298.887 49.7488 299.125 49.4089 299.297 49.0105C299.469 48.6042 299.555 48.1511 299.555 47.6511C299.555 46.7527 299.262 46.0535 298.676 45.5535C298.098 45.0457 297.258 44.7917 296.156 44.7917H293.461ZM318.867 59.8152H316.688L314.906 55.1042H307.781L306.105 59.8152H303.914L310.359 43.0105H312.398L318.867 59.8152ZM314.262 53.3347L311.625 46.1746C311.539 45.9402 311.453 45.5652 311.367 45.0496H311.32C311.242 45.5261 311.152 45.9011 311.051 46.1746L308.438 53.3347H314.262ZM329.555 44.7917H324.703V59.8152H322.734V44.7917H317.895V43.0105H329.555V44.7917ZM334.172 59.8152H332.203V43.0105H334.172V59.8152ZM351.094 43.0105L344.871 59.8152H342.703L336.609 43.0105H338.801L343.453 56.3347C343.602 56.7644 343.715 57.2605 343.793 57.823H343.84C343.902 57.3542 344.031 56.8503 344.227 56.3113L348.973 43.0105H351.094ZM359.695 60.0964C357.312 60.0964 355.402 59.3113 353.965 57.741C352.535 56.1707 351.82 54.1277 351.82 51.6121C351.82 48.9089 352.551 46.7527 354.012 45.1433C355.473 43.5339 357.461 42.7292 359.977 42.7292C362.297 42.7292 364.164 43.5105 365.578 45.073C367 46.6355 367.711 48.6785 367.711 51.2019C367.711 53.9441 366.984 56.1121 365.531 57.7058C364.078 59.2996 362.133 60.0964 359.695 60.0964ZM359.836 44.5105C358.07 44.5105 356.637 45.1472 355.535 46.4207C354.434 47.6941 353.883 49.366 353.883 51.4363C353.883 53.5066 354.418 55.1746 355.488 56.4402C356.566 57.698 357.969 58.3269 359.695 58.3269C361.539 58.3269 362.992 57.7253 364.055 56.5222C365.117 55.3191 365.648 53.6355 365.648 51.4714C365.648 49.2527 365.133 47.5378 364.102 46.3269C363.07 45.116 361.648 44.5105 359.836 44.5105ZM377.602 59.8152V43.0105H382.242C388.164 43.0105 391.125 45.741 391.125 51.2019C391.125 53.7957 390.301 55.8816 388.652 57.4597C387.012 59.03 384.812 59.8152 382.055 59.8152H377.602ZM379.57 44.7917V58.0339H382.078C384.281 58.0339 385.996 57.4441 387.223 56.2644C388.449 55.0847 389.062 53.4128 389.062 51.2488C389.062 46.9441 386.773 44.7917 382.195 44.7917H379.57ZM401.203 60.0964C398.82 60.0964 396.91 59.3113 395.473 57.741C394.043 56.1707 393.328 54.1277 393.328 51.6121C393.328 48.9089 394.059 46.7527 395.52 45.1433C396.98 43.5339 398.969 42.7292 401.484 42.7292C403.805 42.7292 405.672 43.5105 407.086 45.073C408.508 46.6355 409.219 48.6785 409.219 51.2019C409.219 53.9441 408.492 56.1121 407.039 57.7058C405.586 59.2996 403.641 60.0964 401.203 60.0964ZM401.344 44.5105C399.578 44.5105 398.145 45.1472 397.043 46.4207C395.941 47.6941 395.391 49.366 395.391 51.4363C395.391 53.5066 395.926 55.1746 396.996 56.4402C398.074 57.698 399.477 58.3269 401.203 58.3269C403.047 58.3269 404.5 57.7253 405.562 56.5222C406.625 55.3191 407.156 53.6355 407.156 51.4714C407.156 49.2527 406.641 47.5378 405.609 46.3269C404.578 45.116 403.156 44.5105 401.344 44.5105ZM431.156 59.8152H428.812L426 55.1042C425.742 54.6667 425.492 54.2957 425.25 53.991C425.008 53.6785 424.758 53.4246 424.5 53.2292C424.25 53.0339 423.977 52.8933 423.68 52.8074C423.391 52.7136 423.062 52.6667 422.695 52.6667H421.078V59.8152H419.109V43.0105H424.125C424.859 43.0105 425.535 43.1042 426.152 43.2917C426.777 43.4714 427.316 43.7488 427.77 44.1238C428.23 44.4988 428.59 44.9675 428.848 45.53C429.105 46.0847 429.234 46.7371 429.234 47.4871C429.234 48.073 429.145 48.6121 428.965 49.1042C428.793 49.5886 428.543 50.0222 428.215 50.405C427.895 50.7878 427.504 51.116 427.043 51.3894C426.59 51.655 426.078 51.8621 425.508 52.0105V52.0574C425.789 52.1824 426.031 52.3269 426.234 52.491C426.445 52.6472 426.645 52.8347 426.832 53.0535C427.02 53.2722 427.203 53.5222 427.383 53.8035C427.57 54.0769 427.777 54.3972 428.004 54.7644L431.156 59.8152ZM421.078 44.7917V50.8855H423.75C424.242 50.8855 424.695 50.8113 425.109 50.6628C425.531 50.5144 425.895 50.3035 426.199 50.03C426.504 49.7488 426.742 49.4089 426.914 49.0105C427.086 48.6042 427.172 48.1511 427.172 47.6511C427.172 46.7527 426.879 46.0535 426.293 45.5535C425.715 45.0457 424.875 44.7917 423.773 44.7917H421.078ZM442.383 59.8152H433.477V43.0105H442.008V44.7917H435.445V50.3816H441.516V52.1511H435.445V58.0339H442.383V59.8152ZM444.832 59.1355V56.8152C445.098 57.0496 445.414 57.2605 445.781 57.448C446.156 57.6355 446.547 57.7957 446.953 57.9285C447.367 58.0535 447.781 58.1511 448.195 58.2214C448.609 58.2917 448.992 58.3269 449.344 58.3269C450.555 58.3269 451.457 58.1042 452.051 57.6589C452.652 57.2058 452.953 56.5574 452.953 55.7136C452.953 55.2605 452.852 54.866 452.648 54.53C452.453 54.1941 452.18 53.8894 451.828 53.616C451.477 53.3347 451.059 53.0691 450.574 52.8191C450.098 52.5613 449.582 52.2917 449.027 52.0105C448.441 51.7136 447.895 51.4128 447.387 51.1082C446.879 50.8035 446.438 50.4675 446.062 50.1003C445.688 49.7332 445.391 49.3191 445.172 48.8582C444.961 48.3894 444.855 47.8425 444.855 47.2175C444.855 46.4519 445.023 45.7878 445.359 45.2253C445.695 44.655 446.137 44.1863 446.684 43.8191C447.23 43.4519 447.852 43.1785 448.547 42.9988C449.25 42.8191 449.965 42.7292 450.691 42.7292C452.348 42.7292 453.555 42.9285 454.312 43.3269V45.5417C453.32 44.8542 452.047 44.5105 450.492 44.5105C450.062 44.5105 449.633 44.5574 449.203 44.6511C448.773 44.7371 448.391 44.8816 448.055 45.0847C447.719 45.2878 447.445 45.5496 447.234 45.8699C447.023 46.1902 446.918 46.5808 446.918 47.0417C446.918 47.4714 446.996 47.8425 447.152 48.155C447.316 48.4675 447.555 48.7527 447.867 49.0105C448.18 49.2683 448.559 49.5183 449.004 49.7605C449.457 50.0027 449.977 50.2683 450.562 50.5574C451.164 50.8542 451.734 51.1667 452.273 51.4949C452.812 51.823 453.285 52.1863 453.691 52.5847C454.098 52.9832 454.418 53.4246 454.652 53.9089C454.895 54.3933 455.016 54.948 455.016 55.573C455.016 56.4011 454.852 57.1042 454.523 57.6824C454.203 58.2527 453.766 58.7175 453.211 59.0769C452.664 59.4363 452.031 59.6941 451.312 59.8503C450.594 60.0144 449.836 60.0964 449.039 60.0964C448.773 60.0964 448.445 60.073 448.055 60.0261C447.664 59.9871 447.266 59.9246 446.859 59.8386C446.453 59.7605 446.066 59.6628 445.699 59.5457C445.34 59.4207 445.051 59.2839 444.832 59.1355ZM470.66 53.0183C470.66 57.7371 468.531 60.0964 464.273 60.0964C460.195 60.0964 458.156 57.8269 458.156 53.2878V43.0105H460.125V53.1589C460.125 56.6042 461.578 58.3269 464.484 58.3269C467.289 58.3269 468.691 56.6628 468.691 53.3347V43.0105H470.66V53.0183ZM483.586 59.8152H474.867V43.0105H476.836V58.0339H483.586V59.8152ZM494.461 44.7917H489.609V59.8152H487.641V44.7917H482.801V43.0105H494.461V44.7917ZM508.477 59.8152H506.297L504.516 55.1042H497.391L495.715 59.8152H493.523L499.969 43.0105H502.008L508.477 59.8152ZM503.871 53.3347L501.234 46.1746C501.148 45.9402 501.062 45.5652 500.977 45.0496H500.93C500.852 45.5261 500.762 45.9011 500.66 46.1746L498.047 53.3347H503.871ZM510.961 59.8152V43.0105H515.602C521.523 43.0105 524.484 45.741 524.484 51.2019C524.484 53.7957 523.66 55.8816 522.012 57.4597C520.371 59.03 518.172 59.8152 515.414 59.8152H510.961ZM512.93 44.7917V58.0339H515.438C517.641 58.0339 519.355 57.4441 520.582 56.2644C521.809 55.0847 522.422 53.4128 522.422 51.2488C522.422 46.9441 520.133 44.7917 515.555 44.7917H512.93ZM534.562 60.0964C532.18 60.0964 530.27 59.3113 528.832 57.741C527.402 56.1707 526.688 54.1277 526.688 51.6121C526.688 48.9089 527.418 46.7527 528.879 45.1433C530.34 43.5339 532.328 42.7292 534.844 42.7292C537.164 42.7292 539.031 43.5105 540.445 45.073C541.867 46.6355 542.578 48.6785 542.578 51.2019C542.578 53.9441 541.852 56.1121 540.398 57.7058C538.945 59.2996 537 60.0964 534.562 60.0964ZM534.703 44.5105C532.938 44.5105 531.504 45.1472 530.402 46.4207C529.301 47.6941 528.75 49.366 528.75 51.4363C528.75 53.5066 529.285 55.1746 530.355 56.4402C531.434 57.698 532.836 58.3269 534.562 58.3269C536.406 58.3269 537.859 57.7253 538.922 56.5222C539.984 55.3191 540.516 53.6355 540.516 51.4714C540.516 49.2527 540 47.5378 538.969 46.3269C537.938 45.116 536.516 44.5105 534.703 44.5105ZM552.469 59.8152V43.0105H557.109C563.031 43.0105 565.992 45.741 565.992 51.2019C565.992 53.7957 565.168 55.8816 563.52 57.4597C561.879 59.03 559.68 59.8152 556.922 59.8152H552.469ZM554.438 44.7917V58.0339H556.945C559.148 58.0339 560.863 57.4441 562.09 56.2644C563.316 55.0847 563.93 53.4128 563.93 51.2488C563.93 46.9441 561.641 44.7917 557.062 44.7917H554.438ZM576.07 60.0964C573.688 60.0964 571.777 59.3113 570.34 57.741C568.91 56.1707 568.195 54.1277 568.195 51.6121C568.195 48.9089 568.926 46.7527 570.387 45.1433C571.848 43.5339 573.836 42.7292 576.352 42.7292C578.672 42.7292 580.539 43.5105 581.953 45.073C583.375 46.6355 584.086 48.6785 584.086 51.2019C584.086 53.9441 583.359 56.1121 581.906 57.7058C580.453 59.2996 578.508 60.0964 576.07 60.0964ZM576.211 44.5105C574.445 44.5105 573.012 45.1472 571.91 46.4207C570.809 47.6941 570.258 49.366 570.258 51.4363C570.258 53.5066 570.793 55.1746 571.863 56.4402C572.941 57.698 574.344 58.3269 576.07 58.3269C577.914 58.3269 579.367 57.7253 580.43 56.5222C581.492 55.3191 582.023 53.6355 582.023 51.4714C582.023 49.2527 581.508 47.5378 580.477 46.3269C579.445 45.116 578.023 44.5105 576.211 44.5105ZM602.883 59.8152H593.977V43.0105H602.508V44.7917H595.945V50.3816H602.016V52.1511H595.945V58.0339H602.883V59.8152ZM617.719 59.8152H615.316L611.449 53.3816C611.332 53.1863 611.203 52.9089 611.062 52.5496H611.016C610.938 52.7292 610.805 53.0066 610.617 53.3816L606.633 59.8152H604.219L609.844 51.366L604.664 43.0105H607.078L610.512 48.9167C610.738 49.3074 610.938 49.698 611.109 50.0886H611.156C611.406 49.573 611.625 49.1667 611.812 48.8699L615.387 43.0105H617.648L612.363 51.3425L617.719 59.8152ZM629.18 59.8152H620.273V43.0105H628.805V44.7917H622.242V50.3816H628.312V52.1511H622.242V58.0339H629.18V59.8152ZM644.461 59.8152H642.117L639.305 55.1042C639.047 54.6667 638.797 54.2957 638.555 53.991C638.312 53.6785 638.062 53.4246 637.805 53.2292C637.555 53.0339 637.281 52.8933 636.984 52.8074C636.695 52.7136 636.367 52.6667 636 52.6667H634.383V59.8152H632.414V43.0105H637.43C638.164 43.0105 638.84 43.1042 639.457 43.2917C640.082 43.4714 640.621 43.7488 641.074 44.1238C641.535 44.4988 641.895 44.9675 642.152 45.53C642.41 46.0847 642.539 46.7371 642.539 47.4871C642.539 48.073 642.449 48.6121 642.27 49.1042C642.098 49.5886 641.848 50.0222 641.52 50.405C641.199 50.7878 640.809 51.116 640.348 51.3894C639.895 51.655 639.383 51.8621 638.812 52.0105V52.0574C639.094 52.1824 639.336 52.3269 639.539 52.491C639.75 52.6472 639.949 52.8347 640.137 53.0535C640.324 53.2722 640.508 53.5222 640.688 53.8035C640.875 54.0769 641.082 54.3972 641.309 54.7644L644.461 59.8152ZM634.383 44.7917V50.8855H637.055C637.547 50.8855 638 50.8113 638.414 50.6628C638.836 50.5144 639.199 50.3035 639.504 50.03C639.809 49.7488 640.047 49.4089 640.219 49.0105C640.391 48.6042 640.477 48.1511 640.477 47.6511C640.477 46.7527 640.184 46.0535 639.598 45.5535C639.02 45.0457 638.18 44.7917 637.078 44.7917H634.383ZM657.867 59.1121C656.625 59.7683 655.078 60.0964 653.227 60.0964C650.836 60.0964 648.922 59.3269 647.484 57.7878C646.047 56.2488 645.328 54.2292 645.328 51.7292C645.328 49.0417 646.137 46.8699 647.754 45.2136C649.371 43.5574 651.422 42.7292 653.906 42.7292C655.5 42.7292 656.82 42.9597 657.867 43.4207V45.5183C656.664 44.8464 655.336 44.5105 653.883 44.5105C651.953 44.5105 650.387 45.155 649.184 46.4441C647.988 47.7332 647.391 49.4558 647.391 51.6121C647.391 53.6589 647.949 55.2917 649.066 56.5105C650.191 57.7214 651.664 58.3269 653.484 58.3269C655.172 58.3269 656.633 57.9519 657.867 57.2019V59.1121ZM663.258 59.8152H661.289V43.0105H663.258V59.8152ZM665.051 37.6199L661.98 41.4636H660.492L663.105 37.6199H665.051ZM679.125 59.1121C677.883 59.7683 676.336 60.0964 674.484 60.0964C672.094 60.0964 670.18 59.3269 668.742 57.7878C667.305 56.2488 666.586 54.2292 666.586 51.7292C666.586 49.0417 667.395 46.8699 669.012 45.2136C670.629 43.5574 672.68 42.7292 675.164 42.7292C676.758 42.7292 678.078 42.9597 679.125 43.4207V45.5183C677.922 44.8464 676.594 44.5105 675.141 44.5105C673.211 44.5105 671.645 45.155 670.441 46.4441C669.246 47.7332 668.648 49.4558 668.648 51.6121C668.648 53.6589 669.207 55.2917 670.324 56.5105C671.449 57.7214 672.922 58.3269 674.742 58.3269C676.43 58.3269 677.891 57.9519 679.125 57.2019V59.1121ZM684.516 59.8152H682.547V43.0105H684.516V59.8152ZM695.719 60.0964C693.336 60.0964 691.426 59.3113 689.988 57.741C688.559 56.1707 687.844 54.1277 687.844 51.6121C687.844 48.9089 688.574 46.7527 690.035 45.1433C691.496 43.5339 693.484 42.7292 696 42.7292C698.32 42.7292 700.188 43.5105 701.602 45.073C703.023 46.6355 703.734 48.6785 703.734 51.2019C703.734 53.9441 703.008 56.1121 701.555 57.7058C700.102 59.2996 698.156 60.0964 695.719 60.0964ZM695.859 44.5105C694.094 44.5105 692.66 45.1472 691.559 46.4207C690.457 47.6941 689.906 49.366 689.906 51.4363C689.906 53.5066 690.441 55.1746 691.512 56.4402C692.59 57.698 693.992 58.3269 695.719 58.3269C697.562 58.3269 699.016 57.7253 700.078 56.5222C701.141 55.3191 701.672 53.6355 701.672 51.4714C701.672 49.2527 701.156 47.5378 700.125 46.3269C699.094 45.116 697.672 44.5105 695.859 44.5105ZM719.508 53.8855H713.109V52.3738H719.508V53.8855ZM729.539 59.8152V43.0105H735.492C741.461 43.0105 744.445 45.741 744.445 51.2019C744.445 53.8191 743.629 55.9089 741.996 57.4714C740.371 59.0339 738.203 59.8152 735.492 59.8152H729.539ZM733.324 46.0925V56.7449H735.199C736.84 56.7449 738.125 56.2527 739.055 55.2683C739.992 54.2839 740.461 52.9441 740.461 51.2488C740.461 49.6472 739.996 48.3894 739.066 47.4753C738.145 46.5535 736.848 46.0925 735.176 46.0925H733.324ZM761.332 59.8152H756.984L754.371 55.491C754.176 55.1628 753.988 54.8699 753.809 54.6121C753.629 54.3542 753.445 54.1355 753.258 53.9558C753.078 53.7683 752.887 53.6277 752.684 53.5339C752.488 53.4324 752.273 53.3816 752.039 53.3816H751.02V59.8152H747.234V43.0105H753.234C757.312 43.0105 759.352 44.5339 759.352 47.5808C759.352 48.1667 759.262 48.7097 759.082 49.2097C758.902 49.7019 758.648 50.1472 758.32 50.5457C757.992 50.9441 757.594 51.2878 757.125 51.5769C756.664 51.866 756.148 52.0925 755.578 52.2566V52.3035C755.828 52.3816 756.07 52.5105 756.305 52.6902C756.539 52.8621 756.766 53.0652 756.984 53.2996C757.203 53.5339 757.41 53.7878 757.605 54.0613C757.809 54.3269 757.992 54.5886 758.156 54.8464L761.332 59.8152ZM751.02 45.8464V50.5222H752.66C753.473 50.5222 754.125 50.2878 754.617 49.8191C755.117 49.3425 755.367 48.7527 755.367 48.0496C755.367 46.5808 754.488 45.8464 752.73 45.8464H751.02ZM772.992 59.8152H762.914V43.0105H772.605V46.0925H766.699V49.8308H772.195V52.9011H766.699V56.7449H772.992V59.8152Z" fill="black" fill-opacity="0.6"/>
<line x1="152.001" y1="85.75" x2="1180" y2="87.9303" stroke="#CBCBCB" stroke-width="0.5"/>
<g filter="url(#filter2_d_3_37)">
<path d="M1230 130.456C1230 119.711 1238.71 111 1249.46 111H1882.54C1893.29 111 1902 119.711 1902 130.456V443.544C1902 454.289 1893.29 463 1882.54 463H1249.46C1238.71 463 1230 454.289 1230 443.544V130.456Z" fill="white"/>
</g>
<g filter="url(#filter3_d_3_37)">
<path d="M16 128.456C16 117.711 24.711 109 35.4565 109H1196.54C1207.29 109 1216 117.711 1216 128.456V1031.54C1216 1042.29 1207.29 1051 1196.54 1051H35.4564C24.7109 1051 16 1042.29 16 1031.54V128.456Z" fill="white"/>
</g>
<g filter="url(#filter4_d_3_37)">
<path d="M1230 495.456C1230 484.711 1238.71 476 1249.46 476H1882.54C1893.29 476 1902 484.711 1902 495.456V728.544C1902 739.289 1893.29 748 1882.54 748H1249.46C1238.71 748 1230 739.289 1230 728.544V495.456Z" fill="white"/>
</g>
<g filter="url(#filter5_d_3_37)">
<path d="M1230 782.456C1230 771.711 1238.71 763 1249.46 763H1882.54C1893.29 763 1902 771.711 1902 782.456V1031.54C1902 1042.29 1893.29 1051 1882.54 1051H1249.46C1238.71 1051 1230 1042.29 1230 1031.54V782.456Z" fill="white"/>
</g>
</g>
<defs>
<filter id="filter0_d_3_37" x="1622.97" y="-156.048" width="234.618" height="246.33" filterUnits="userSpaceOnUse" color-interpolation-filters="sRGB">
<feFlood flood-opacity="0" result="BackgroundImageFix"/>
<feColorMatrix in="SourceAlpha" type="matrix" values="0 0 0 0 0 0 0 0 0 0 0 0 0 0 0 0 0 0 127 0" result="hardAlpha"/>
<feOffset dx="1.49665" dy="2.9933"/>
<feGaussianBlur stdDeviation="4.48995"/>
<feComposite in2="hardAlpha" operator="out"/>
<feColorMatrix type="matrix" values="0 0 0 0 0.392157 0 0 0 0 0.203922 0 0 0 0 0.972549 0 0 0 0.15 0"/>
<feBlend mode="normal" in2="BackgroundImageFix" result="effect1_dropShadow_3_37"/>
<feBlend mode="normal" in="SourceGraphic" in2="effect1_dropShadow_3_37" result="shape"/>
</filter>
<filter id="filter1_d_3_37" x="1741.41" y="-165.26" width="234.618" height="246.33" filterUnits="userSpaceOnUse" color-interpolation-filters="sRGB">
<feFlood flood-opacity="0" result="BackgroundImageFix"/>
<feColorMatrix in="SourceAlpha" type="matrix" values="0 0 0 0 0 0 0 0 0 0 0 0 0 0 0 0 0 0 127 0" result="hardAlpha"/>
<feOffset dx="1.49665" dy="2.9933"/>
<feGaussianBlur stdDeviation="4.48995"/>
<feComposite in2="hardAlpha" operator="out"/>
<feColorMatrix type="matrix" values="0 0 0 0 0.392157 0 0 0 0 0.203922 0 0 0 0 0.972549 0 0 0 0.15 0"/>
<feBlend mode="normal" in2="BackgroundImageFix" result="effect1_dropShadow_3_37"/>
<feBlend mode="normal" in="SourceGraphic" in2="effect1_dropShadow_3_37" result="shape"/>
</filter>
<filter id="filter2_d_3_37" x="1222.52" y="105.013" width="689.96" height="369.96" filterUnits="userSpaceOnUse" color-interpolation-filters="sRGB">
<feFlood flood-opacity="0" result="BackgroundImageFix"/>
<feColorMatrix in="SourceAlpha" type="matrix" values="0 0 0 0 0 0 0 0 0 0 0 0 0 0 0 0 0 0 127 0" result="hardAlpha"/>
<feOffset dx="1.49665" dy="2.9933"/>
<feGaussianBlur stdDeviation="4.48995"/>
<feComposite in2="hardAlpha" operator="out"/>
<feColorMatrix type="matrix" values="0 0 0 0 0.392157 0 0 0 0 0.203922 0 0 0 0 0.972549 0 0 0 0.15 0"/>
<feBlend mode="normal" in2="BackgroundImageFix" result="effect1_dropShadow_3_37"/>
<feBlend mode="normal" in="SourceGraphic" in2="effect1_dropShadow_3_37" result="shape"/>
</filter>
<filter id="filter3_d_3_37" x="8.51675" y="103.013" width="1217.96" height="959.96" filterUnits="userSpaceOnUse" color-interpolation-filters="sRGB">
<feFlood flood-opacity="0" result="BackgroundImageFix"/>
<feColorMatrix in="SourceAlpha" type="matrix" values="0 0 0 0 0 0 0 0 0 0 0 0 0 0 0 0 0 0 127 0" result="hardAlpha"/>
<feOffset dx="1.49665" dy="2.9933"/>
<feGaussianBlur stdDeviation="4.48995"/>
<feComposite in2="hardAlpha" operator="out"/>
<feColorMatrix type="matrix" values="0 0 0 0 0.392157 0 0 0 0 0.203922 0 0 0 0 0.972549 0 0 0 0.15 0"/>
<feBlend mode="normal" in2="BackgroundImageFix" result="effect1_dropShadow_3_37"/>
<feBlend mode="normal" in="SourceGraphic" in2="effect1_dropShadow_3_37" result="shape"/>
</filter>
<filter id="filter4_d_3_37" x="1222.52" y="470.013" width="689.96" height="289.96" filterUnits="userSpaceOnUse" color-interpolation-filters="sRGB">
<feFlood flood-opacity="0" result="BackgroundImageFix"/>
<feColorMatrix in="SourceAlpha" type="matrix" values="0 0 0 0 0 0 0 0 0 0 0 0 0 0 0 0 0 0 127 0" result="hardAlpha"/>
<feOffset dx="1.49665" dy="2.9933"/>
<feGaussianBlur stdDeviation="4.48995"/>
<feComposite in2="hardAlpha" operator="out"/>
<feColorMatrix type="matrix" values="0 0 0 0 0.392157 0 0 0 0 0.203922 0 0 0 0 0.972549 0 0 0 0.15 0"/>
<feBlend mode="normal" in2="BackgroundImageFix" result="effect1_dropShadow_3_37"/>
<feBlend mode="normal" in="SourceGraphic" in2="effect1_dropShadow_3_37" result="shape"/>
</filter>
<filter id="filter5_d_3_37" x="1222.52" y="757.013" width="689.96" height="305.96" filterUnits="userSpaceOnUse" color-interpolation-filters="sRGB">
<feFlood flood-opacity="0" result="BackgroundImageFix"/>
<feColorMatrix in="SourceAlpha" type="matrix" values="0 0 0 0 0 0 0 0 0 0 0 0 0 0 0 0 0 0 127 0" result="hardAlpha"/>
<feOffset dx="1.49665" dy="2.9933"/>
<feGaussianBlur stdDeviation="4.48995"/>
<feComposite in2="hardAlpha" operator="out"/>
<feColorMatrix type="matrix" values="0 0 0 0 0.392157 0 0 0 0 0.203922 0 0 0 0 0.972549 0 0 0 0.15 0"/>
<feBlend mode="normal" in2="BackgroundImageFix" result="effect1_dropShadow_3_37"/>
<feBlend mode="normal" in="SourceGraphic" in2="effect1_dropShadow_3_37" result="shape"/>
</filter>
<linearGradient id="paint0_linear_3_37" x1="30.041" y1="0" x2="30.041" y2="270.896" gradientUnits="userSpaceOnUse">
<stop stop-color="#5A48F9"/>
<stop offset="1" stop-color="#312787"/>
</linearGradient>
<linearGradient id="paint1_linear_3_37" x1="30.041" y1="0" x2="30.041" y2="270.896" gradientUnits="userSpaceOnUse">
<stop stop-color="#5A48F9"/>
<stop offset="0.0001" stop-color="#312787"/>
</linearGradient>
<clipPath id="clip0_3_37">
<rect width="1920" height="1080" fill="white"/>
</clipPath>
</defs>
</svg>
